<?xml version="1.0" encoding="UTF-8" standalone="no"?>
<!-- Created with Inkscape (http://www.inkscape.org/) -->

<svg
   version="1.1"
   id="svg1"
   width="501.49414"
   height="551.50763"
   viewBox="0 0 501.49414 551.50763"
   sodipodi:docname="logo-anime-planner-vectorizado.svg"
   inkscape:export-filename="logo-anime-planner-vectorizado.png"
   inkscape:export-xdpi="96"
   inkscape:export-ydpi="96"
   xmlns:inkscape="http://www.inkscape.org/namespaces/inkscape"
   xmlns:sodipodi="http://sodipodi.sourceforge.net/DTD/sodipodi-0.dtd"
   xmlns="http://www.w3.org/2000/svg"
   xmlns:svg="http://www.w3.org/2000/svg">
  <sodipodi:namedview
     id="namedview1"
     pagecolor="#ffffff"
     bordercolor="#000000"
     borderopacity="0.25"
     inkscape:showpageshadow="2"
     inkscape:pageopacity="0.0"
     inkscape:pagecheckerboard="0"
     inkscape:deskcolor="#d1d1d1" />
  <defs
     id="defs1" />
  <g
     id="g1"
     transform="translate(-261.25293,-275.17528)">
    <rect
       style="fill:#ffffff;fill-opacity:1;fill-rule:evenodd;stroke:none;stroke-width:14;stroke-opacity:0.74127"
       id="rect12"
       width="438.79898"
       height="329.03021"
       x="293.11993"
       y="301.82135"
       inkscape:label="background white" />
    <path
       style="display:inline;fill:#000000"
       d="m 328.85484,825.94934 c -17.72466,-1.89995 -34.07447,-7.85493 -47.20003,-17.19134 -23.5144,-16.72617 -38.84892,-42.65758 -42.39963,-71.69981 -0.67956,-5.55836 -1.03397,-70.23971 -1.0301,-188 0.007,-198.12097 -0.24333,-189.88672 6.31825,-208.24523 10.68911,-29.90682 36.70741,-54.48815 65.4793,-61.86294 4.2331,-1.08502 11.97155,-2.43096 17.19655,-2.99098 6.16384,-0.66064 66.03919,-0.91375 170.5,-0.72074 l 151.69067,0.28027 a 67.976841,67.976841 7.9039361 0 1 18.27127,2.53663 l 0.96997,0.27268 c 12.67826,3.56418 22.83358,8.87578 33.69468,17.62353 17.93388,14.44432 30.46074,34.12288 35.56321,55.86655 1.71352,7.30199 1.8102,17.86204 1.8102,197.714 v 180.52919 a 76.198582,76.198582 97.085024 0 1 -2.31846,18.65346 l -0.45885,1.81735 c -7.33466,29.0502 -25.37907,52.43528 -50.12987,64.96703 -6.58383,3.33351 -15.1576,6.70424 -21.09282,8.29253 a 134.93316,134.93316 175.57902 0 1 -34.94092,2.70142 l -134.55908,0.13701 c -87.725,0.0893 -163.03895,-0.21696 -167.36434,-0.68061 z M 484.01918,625.83196 c 0.75338,-0.75338 1.2,-4.50912 1.2,-10.09105 0,-8.72324 -0.0743,-8.99787 -3.93536,-14.55 -3.28878,-4.72919 -4.11027,-6.94416 -5,-13.48131 -0.58555,-4.3023 -1.06464,-8.05521 -1.06464,-8.3398 0,-0.28459 -1.72223,1.66135 -3.82719,4.32432 -8.62965,10.91733 -21.80687,19.80843 -31.23079,21.07244 -2.19493,0.2944 -4.2101,0.89015 -4.47816,1.32387 -1.24389,2.01266 12.8574,9.18893 32.53614,16.55794 12.50982,4.6845 13.99903,4.98456 15.8,3.18359 z m 54.53004,-15.73122 c 4.49348,-1.61217 16.49496,-5.92412 26.66996,-9.5821 10.175,-3.65798 32.675,-11.52232 50,-17.47631 30.58795,-10.51201 47.38428,-16.45611 59.27205,-20.97597 l 5.77206,-2.1946 -0.27206,-105.6699 -0.25699,-99.82199 a 25.323664,25.323664 76.849272 0 0 -2.59274,-11.09708 l -0.22847,-0.46527 c -3.45707,-7.03998 -10.04736,-13.00732 -17.54676,-15.88815 -6.27394,-2.41009 -26.47396,-3.97054 -28.26131,-2.18319 -0.63571,0.63571 0.87643,2.37597 4.33056,4.98386 5.88999,4.44699 10.13519,9.99127 12.63181,16.4973 1.48365,3.8663 1.67351,13.11258 1.86456,90.80462 0.11699,47.575 -0.0409,93.31964 -0.35082,101.65475 l -0.56353,15.15476 -11.50696,4.09524 c -6.32883,2.25239 -11.89753,4.09525 -12.37489,4.09525 -0.48052,0 -0.99036,-33.81184 -1.14222,-75.75 -0.25713,-71.00994 -0.38795,-75.9583 -2.09071,-79.07878 -3.55692,-6.51844 3.93651,-6.17122 -133.18358,-6.17122 -139.61308,0 -130.00099,-0.51926 -133.51008,7.21236 -1.87174,4.12402 -1.94683,7.14013 -1.96796,79.03764 -0.0134,45.70263 -0.3854,74.75 -0.95724,74.75 -0.5144,0 -6.14761,-1.84974 -12.51824,-4.11052 l -11.58295,-4.11053 0.26823,-102.63947 0.25332,-96.93052 a 26.647923,26.647923 102.24184 0 1 2.36733,-10.91075 v 0 c 1.77967,-3.93533 8.12113,-11.23768 11.83651,-14.10158 1.11519,-0.85962 3.31107,-2.01634 3.31108,-3.3339 0,-2.08932 -0.26382,-2.1264 -11.76006,-1.65293 -9.19073,0.37852 -12.85025,0.96549 -16.75,2.68662 -10.59164,4.67456 -17.77164,15.2793 -19.54829,28.8725 -0.6388,4.88747 -0.90586,43.76155 -0.72606,105.68916 l 0.28441,97.95808 14,5.30101 c 7.7,2.91557 27.95,10.21843 45,16.2286 17.05,6.01016 34.26744,12.14809 38.26097,13.63984 l 7.26098,2.71227 5.73902,-6.07914 c 4.39529,-4.65576 6.63015,-6.24106 9.54491,-6.77071 3.7207,-0.6761 8.58548,-0.25602 11.8012,1.01904 1.13743,0.451 1.93684,-0.18167 2.73547,-2.16492 1.29684,-3.22048 4.40453,-16.41023 3.95656,-16.79253 -0.16451,-0.1404 -1.87411,-1.05112 -3.79911,-2.02384 -1.925,-0.97271 -4.5812,-2.61124 -5.90266,-3.64118 -1.32147,-1.02993 -2.6103,-1.66498 -2.86407,-1.4112 -0.77015,0.77015 3.73361,7.39235 6.58816,9.68703 l 2.67857,2.15322 -5.67493,-0.55682 c -11.63963,-1.14209 -20.62107,-7.58784 -26.24965,-18.83871 -1.9416,-3.88103 -3.82596,-9.28608 -4.18746,-12.01122 -0.53861,-4.06025 -1.15393,-5.21164 -3.40812,-6.37732 -4.09809,-2.11921 -10.46631,-9.8322 -11.80382,-14.29642 -3.54931,-11.84652 0.48401,-26.67769 11.37146,-41.81479 1.44709,-2.01192 1.25264,-1.98863 -3.76075,0.45049 -6.8282,3.32206 -15.92375,3.63375 -20.32674,0.69656 l -2.95999,-1.97458 5,-0.64585 c 11.53557,-1.49005 17.47688,-6.31573 26.59012,-21.59717 12.22792,-20.50427 27.36404,-32.42718 43.56552,-34.3171 3.7644,-0.43912 8.86936,-1.56364 11.34436,-2.49894 6.3924,-2.41567 22.58293,-2.4708 30.5,-0.10386 12.13035,3.62658 21.29562,9.3189 31.50817,19.56898 7.56736,7.59515 10.42506,11.3224 14,18.25999 4.33177,8.40629 4.70057,8.81088 10.35005,11.35464 9.58088,4.31394 18.6386,4.23949 29.47488,-0.24224 2.08221,-0.86118 -1.08643,4.6433 -4.49382,7.80655 -4.79935,4.45546 -9.38602,6.22071 -17.83928,6.8657 l -8,0.61041 9.23831,9.12493 c 5.08107,5.01871 12.2024,11.06852 15.82517,13.44402 l 6.58685,4.3191 -3.95347,0.30155 c -5.29889,0.40417 -13.61136,-2.65034 -21.15664,-7.77424 -3.4069,-2.31358 -6.43601,-3.96486 -6.73136,-3.66951 -0.29535,0.29535 0.37813,2.02317 1.49661,3.8396 1.11849,1.81643 4.03941,7.3526 6.49095,12.3026 9.81967,19.82731 12.90715,33.85562 10.25293,46.58531 -1.9101,9.1609 -3.12532,10.47218 -3.41506,3.68505 -0.3831,-8.97396 -2.83002,-15.80565 -9.02075,-25.18557 l -2.61354,-3.95991 -0.60851,10.43756 c -0.43301,7.42726 -1.27504,12.11912 -2.91957,16.26801 -2.50189,6.3119 -8.84938,14.06176 -13.94243,17.02279 l -3.18763,1.85325 1.57907,-3.05359 c 1.65103,-3.19273 2.05033,-15.31013 0.66409,-20.1529 -0.63212,-2.20828 -0.78415,-2.00606 -1.30289,1.733 -1.25405,9.03931 -7.70557,18.14665 -15.76885,22.26023 -2.16348,1.10372 -4.15357,2.00677 -4.42242,2.00677 -0.26884,0 0.16323,-1.56055 0.96017,-3.46788 0.79693,-1.90734 1.44897,-4.69153 1.44897,-6.18709 v -2.71921 l -2.75,2.58313 c -1.5125,1.42072 -5.45,4.45646 -8.75,6.74608 -3.3,2.28963 -6,4.36298 -6,4.60745 0,0.24447 1.56822,1.23042 3.48493,2.191 1.95952,0.98204 4.42933,3.44321 5.6425,5.62276 1.95055,3.50431 2.9595,4.13604 10.51507,6.58378 10.59625,3.43282 17.5582,7.01169 21.29459,10.94673 1.6154,1.70129 3.11392,3.09325 3.33004,3.09325 0.21612,0 4.06943,-1.31905 8.56291,-2.93122 z m 42.66996,-49.91516 c 0,-1.5655 -0.29238,-6.9655 -0.64974,-12 l -0.64975,-9.15362 h 12.14975 12.14974 v 12 12 h -11.5 -11.5 z m -0.35304,-47.87214 c -0.34372,-2.07981 -0.6299,-7.26898 -0.63595,-11.53148 l -0.011,-7.75 h 12.03275 12.03275 l -0.28275,11.25 -0.28275,11.25 -11.11405,0.28148 -11.11405,0.28148 z m -0.64696,-53.78148 v -11.5 h 12 12 v 11.5 11.5 h -12 -12 z M 473.97674,568.6809 c 15.43166,-5.2209 30.35935,-19.98351 32.86246,-32.49904 0.4724,-2.36198 0.0575,-2.93257 -3.28972,-4.52386 -6.12066,-2.90984 -15.76832,-10.1807 -20.22136,-15.23962 -2.25992,-2.5674 -4.09906,-4.04214 -4.08698,-3.27721 0.0411,2.60454 3.70599,9.51135 7.09495,13.37116 l 3.38001,3.84962 -4.36606,-0.58561 c -15.27994,-2.04947 -33.95212,-20.32576 -39.82499,-38.98062 -0.99323,-3.15493 -2.13291,-5.74243 -2.53262,-5.75 -1.54176,-0.0292 -8.95889,10.53414 -12.17834,17.34417 -4.46994,9.45514 -5.94322,16.31301 -5.38228,25.05362 1.09455,17.05539 16.19444,35.54423 34.07451,41.72204 6.61747,2.28643 6.2427,2.29898 14.47042,-0.48465 z M 380.13399,366.57601 c 5.42063,-2.80312 6.08519,-6.0769 6.08519,-29.9773 0,-23.23359 -0.60552,-26.77619 -5.11687,-29.93606 -1.34583,-0.94265 -4.29928,-1.63069 -6.99988,-1.63069 -3.74769,0 -5.27073,0.55954 -7.70008,2.8289 -1.69764,1.58583 -3.30874,4.33218 -3.66645,6.25 -0.35096,1.8816 -0.4983,13.17337 -0.32742,25.09281 0.30877,21.53685 0.32626,21.68844 2.8107,24.35936 4.26561,4.58578 9.73625,5.69092 14.91481,3.01298 z m 61.82557,-8.65137 0.25962,-21.7736 c 0.2808,-23.54988 -0.10726,-24.98572 -2.05365,-27.46015 -2.39028,-3.03874 -9.76221,-4.91149 -13.59867,-3.03795 -6.97301,3.40528 -7.4394,5.51393 -7.12364,32.20762 l 0.26464,22.37144 a 5.578499,5.578499 79.58561 0 0 0.34108,1.85579 c 1.65103,4.49933 9.12988,6.11402 13.34189,5.63927 1.77362,-0.0662 3.01116,-0.1995 4.01791,-0.51137 3.00507,-0.93089 4.51278,-6.10135 4.55082,-9.29105 z m 54.83312,7.03827 c 3.70643,-3.48201 4.24204,-7.54486 4.07764,-30.93095 -0.1456,-20.71186 -0.23546,-21.61822 -2.45137,-24.72491 -4.8117,-6.74598 -14.79387,-6.26977 -19.17414,0.91473 -1.86976,3.06679 -2.01815,5.00133 -2.01815,26.31018 0,21.24978 0.15239,23.24994 2.00258,26.28456 1.10142,1.80651 3.01224,3.71454 4.24626,4.24007 3.66656,1.56146 10.58411,0.47391 13.31718,-2.09368 z m 54.45923,1.55212 c 5.52239,-2.85573 5.96727,-5.09476 5.96727,-30.03228 0,-18.35521 -0.29292,-23.26582 -1.54525,-25.9049 -3.8196,-8.04922 -16.0899,-8.04922 -19.9095,0 -2.2292,4.69768 -2.27125,47.1495 -0.051,51.44307 3.01335,5.82717 9.39265,7.67223 15.53844,4.49411 z m 59.33143,-0.94476 c 0.23443,-0.21727 0.4735,-0.45836 0.71192,-0.71596 1.96814,-2.12644 3.41521,-6.66806 3.5977,-9.56762 0.766,-12.17083 0.31648,-40.34197 -1.03576,-43.53685 -2.12352,-5.01712 -5.2221,-7.21788 -10.16244,-7.21788 -4.94213,0 -8.8283,2.87597 -11.10446,8.21788 -2.04286,4.7944 -1.95379,44.25468 0.1089,48.24348 3.70557,7.16578 12.62711,9.449 17.88414,4.57695 z"
       id="path1"
       transform="translate(23.027886)"
       inkscape:label="picture" />
    <rect
       style="fill:#ffffff;fill-opacity:1;fill-rule:evenodd;stroke:none;stroke-width:14;stroke-opacity:0.74127"
       id="rect11"
       width="338.32965"
       height="2.3445456"
       x="342.83517"
       y="768.96301"
       inkscape:label="line" />
    <text
       xml:space="preserve"
       style="font-style:italic;font-variant:normal;font-weight:bold;font-stretch:normal;font-size:20px;font-family:'TeX Gyre Heros';-inkscape-font-specification:'TeX Gyre Heros, Bold Italic';font-variant-ligatures:normal;font-variant-caps:normal;font-variant-numeric:normal;font-variant-east-asian:normal;fill:#ffffff;fill-rule:evenodd;stroke-width:5.36196;stroke-opacity:0.74127"
       x="422.93768"
       y="776.81934"
       id="text2"
       transform="scale(1.0347873,0.96638219)"><tspan
         sodipodi:role="line"
         id="tspan2"
         x="422.93768"
         y="776.81934"
         style="font-style:italic;font-variant:normal;font-weight:bold;font-stretch:normal;font-size:20px;font-family:'TeX Gyre Heros';-inkscape-font-specification:'TeX Gyre Heros, Bold Italic';font-variant-ligatures:normal;font-variant-caps:normal;font-variant-numeric:normal;font-variant-east-asian:normal;stroke-width:5.36196">The Otaku App</tspan></text>
    <path
       id="text3"
       style="font-style:italic;font-variant:normal;font-weight:bold;font-stretch:normal;font-size:66.6667px;font-family:'TeX Gyre Heros';-inkscape-font-specification:'TeX Gyre Heros, Bold Italic';font-variant-ligatures:normal;font-variant-caps:normal;font-variant-numeric:normal;font-variant-east-asian:normal;fill:#ffffff;fill-rule:evenodd;stroke-width:14;stroke-opacity:0.74127"
       d="m 640.7002,652.98385 c -4.4,0 -8,3.60005 -8,8 0,0.44171 0.0611,0.86827 0.13085,1.29102 -1.38521,0.21187 -2.80348,0.30859 -3.79687,0.30859 h -30.86719 c -2.2,0 -5.93359,-0.33294 -7.93359,-0.59961 v 9.4668 c 1.73333,-0.13333 4.86697,-0.33398 7.93359,-0.33398 h 31.06641 c -0.86667,5.73329 -3.40052,13.33389 -7.86719,18.86718 -5.33329,6.73333 -12.86619,12.53299 -26.13281,15.59961 l 7.26758,8 c 11.93324,-3.79996 20.79887,-10.40043 26.79882,-18.40039 5.6,-7.39995 8.53308,-17.79874 10.06641,-24.33203 0.13829,-0.58083 0.31691,-1.27243 0.50586,-1.95117 0.27595,0.0291 0.54479,0.084 0.82813,0.084 4.39995,0 8,-3.6 8,-8 0,-4.39995 -3.60005,-8 -8,-8 z m -229.20118,1.06641 c -0.6,2.33333 -2,5.4 -3,7 -3.39995,5.79996 -9.53259,14.93286 -21.19922,22.13281 l 7.13282,5.53321 c 6.75053,-4.64102 12.93924,-11.05797 17.59179,-17.26563 h 19.07618 c -1.0204,4.18901 -3.9251,9.92327 -7.3418,14.76953 -4.19455,-2.8197 -8.437,-5.55644 -11.92578,-7.57031 l -5.9336,6.06641 c 3.41878,2.16226 7.78136,5.21042 12.08204,8.36718 -5.46242,5.52475 -12.84416,10.92239 -24.34766,14.5 l 7.73242,6.66602 c 10.34944,-3.90138 17.89411,-9.57236 23.73242,-15.74414 2.74861,2.17742 5.28078,4.26046 7.06836,5.94531 l 6.40039,-7.59961 c -1.97254,-1.56958 -4.65934,-3.53953 -7.54297,-5.59961 4.79475,-6.65255 8.19826,-13.78913 9.94141,-19.13476 0.6,-1.66667 1.46758,-3.53217 2.26758,-4.79883 l -6.80078,-4.20117 c -1.53334,0.46666 -3.73216,0.80078 -5.79883,0.80078 h -13.63867 c 0.0119,-0.0215 0.0272,-0.045 0.0391,-0.0664 0.8,-1.4 2.53281,-4.46745 4.13281,-6.80078 z m 66.86719,0.59961 c -0.6,2.33333 -2,5.4 -3,7 -3.26666,5.73329 -9.13221,14.33347 -20.79883,21.4668 l 7.4668,5.5332 c 6.55904,-4.46382 12.30566,-10.26575 16.75586,-16.06641 h 18.84375 c -1.06667,4.93333 -4.93347,12.93282 -9.4668,18.13282 -5.86662,6.59995 -13.26723,12.39987 -26.86719,16.5332 l 7.86719,7 c 12.53329,-4.93333 20.5339,-11.06554 26.86719,-18.79883 6.06662,-7.39996 9.86602,-16.26758 11.66602,-22.26758 0.53333,-1.66666 1.46592,-3.46575 2.19921,-4.73242 l -6.86523,-4.26758 c -1.46667,0.53334 -3.73412,0.80078 -5.80078,0.80078 h -13.33399 c 0.0627,-0.10978 0.13975,-0.22468 0.20118,-0.33398 0.73333,-1.4 2.4664,-4.4655 4.0664,-6.79883 z m -125.66601,1.80078 c 0.33333,1.8 0.46601,3.93216 0.66601,6.79883 0.0643,1.32617 0.0758,3.29199 0.12891,4.80078 h -21.9961 c -2.26662,0 -5.46536,-0.2668 -7.33203,-0.4668 v 8.86719 c 2.33333,-0.13333 5.13295,-0.26758 7.59961,-0.26758 h 18.04688 c 0.0692,-0.0988 0.13787,-0.19668 0.20507,-0.29492 l -0.16796,0.25195 0.0273,0.043 h -0.0644 c -5.32576,7.60893 -16.26375,16.9231 -29.2461,23.13477 l 6.13282,6.93164 c 10.55654,-5.58517 21.33162,-14.87751 27.19921,-22.61524 l 0.004,0.006 c 0.0941,6.89537 0.13086,13.59528 0.13086,18.07618 0,1.86662 -0.60091,2.73437 -2.26758,2.73437 -2.26666,0 -5.86693,-0.26771 -8.93359,-0.73437 l 0.80078,8.66796 c 3.8,0.26667 7.46658,0.4004 11.5332,0.40039 5.06667,0 7.53347,-2.46771 7.4668,-6.73437 -0.0929,-9.38742 -0.34494,-19.85138 -0.55859,-29.83594 l 0.0234,-0.0312 h 8.53516 c 1.8,0 4.40013,0.0681 6.4668,0.13477 v -8.80078 c -1.6,0.2 -4.73386,0.5332 -6.86719,0.5332 h -8.30078 l -0.01,-0.0137 c -0.0282,-1.39672 -0.0675,-3.5568 -0.0898,-4.78711 -0.0667,-2.13333 0.0671,-4.6655 0.40039,-6.79883 z m 288,0.66602 c 2.13329,0 3.86718,1.73389 3.86718,3.86718 0,2.13334 -1.73389,3.86719 -3.86718,3.86719 -2.13334,0 -3.86719,-1.73385 -3.86719,-3.86719 0,-2.13329 1.73385,-3.86718 3.86719,-3.86718 z m 52.66601,1 c 0.26667,1.86662 0.4668,4.00104 0.4668,6.73437 v 12.59961 c 0,10.39996 -0.93347,15.40043 -5.4668,20.40039 -4.06662,4.33333 -9.39974,6.86511 -16.06641,8.39844 l 7,7.40039 c 4.86667,-1.6 11.73282,-4.79935 16.13282,-9.66602 4.99996,-5.46662 7.80078,-11.60004 7.80078,-26 v -13.13281 c 0,-2.73333 0.0659,-4.86775 0.19922,-6.73437 z m -30.4668,0.59961 c 0.2,1.53329 0.26758,3.8684 0.26758,5.06835 v 22.46485 c 0,2.06666 -0.20065,4.66719 -0.33398,5.86719 h 9.73437 c -0.13333,-1.53334 -0.26757,-4.13217 -0.26758,-5.79883 v -22.53321 c 0,-2.06662 0.13425,-3.53506 0.26758,-5.06835 z m -138.79882,1 v 9.33398 c 3.13329,-0.33333 5.39948,-0.4668 8.13281,-0.4668 h 34.80078 c -1.73333,3.26667 -6.93403,9.13377 -12.33398,12.40039 l 6.93359,5.53321 c 6.59996,-4.66667 12.93307,-13.13399 16.06641,-18.33399 0.6,-0.93333 1.86653,-2.53177 2.5332,-3.39844 l -5.26758,-4.93359 c -1.26667,0.33333 -4.93216,0.59961 -6.79883,0.59961 H 532.2334 c -2.73333,0 -5.53285,-0.33437 -8.13281,-0.73437 z m 19.33203,14 c 0.33333,2.19995 0.40039,3.93506 0.40039,6.06835 0,10.93329 -1.60005,17.93221 -10,23.79883 -2.46667,1.86667 -4.86641,3.00105 -7.06641,3.73438 l 7.80078,6.33203 c 18.13325,-9.79996 18.53321,-23.40035 18.53321,-39.93359 z" />
  </g>
</svg>
